<mxfile host="app.diagrams.net" modified="2022-01-04T08:37:10.011Z" agent="5.0 (Windows NT 10.0; Win64; x64) AppleWebKit/537.36 (KHTML, like Gecko) Chrome/96.0.4664.110 Safari/537.36 Edg/96.0.1054.62" etag="ad9Ba8Wy8HtvBObb0hR5" version="16.1.0" type="github">
  <diagram id="vNIdtvATBp_MIwgatv_s" name="第 1 页">
    <mxGraphModel dx="1038" dy="547" grid="1" gridSize="10" guides="1" tooltips="1" connect="1" arrows="1" fold="1" page="1" pageScale="1" pageWidth="827" pageHeight="1169" math="0" shadow="0">
      <root>
        <mxCell id="0" />
        <mxCell id="1" parent="0" />
        <mxCell id="m72iXQQqprIy3v08GnkQ-3" style="edgeStyle=orthogonalEdgeStyle;rounded=0;orthogonalLoop=1;jettySize=auto;html=1;exitX=0.5;exitY=1;exitDx=0;exitDy=0;entryX=0.5;entryY=0;entryDx=0;entryDy=0;fontSize=13;" parent="1" source="m72iXQQqprIy3v08GnkQ-1" target="m72iXQQqprIy3v08GnkQ-2" edge="1">
          <mxGeometry relative="1" as="geometry" />
        </mxCell>
        <mxCell id="m72iXQQqprIy3v08GnkQ-1" value="Begin" style="rounded=1;whiteSpace=wrap;html=1;" parent="1" vertex="1">
          <mxGeometry x="376" y="40" width="80" height="50" as="geometry" />
        </mxCell>
        <mxCell id="m72iXQQqprIy3v08GnkQ-5" style="edgeStyle=orthogonalEdgeStyle;rounded=0;orthogonalLoop=1;jettySize=auto;html=1;exitX=0.5;exitY=1;exitDx=0;exitDy=0;fontSize=12;" parent="1" source="m72iXQQqprIy3v08GnkQ-2" target="m72iXQQqprIy3v08GnkQ-4" edge="1">
          <mxGeometry relative="1" as="geometry" />
        </mxCell>
        <mxCell id="m72iXQQqprIy3v08GnkQ-2" value="&lt;font size=&quot;1&quot;&gt;Determine initial inventory&lt;/font&gt;&lt;font style=&quot;font-size: 11px&quot;&gt; &lt;font style=&quot;font-size: 11px&quot;&gt;S&lt;/font&gt;&lt;font style=&quot;font-size: 11px&quot;&gt;&lt;sub&gt;0&lt;/sub&gt;&lt;/font&gt;&lt;/font&gt;" style="rounded=0;whiteSpace=wrap;html=1;" parent="1" vertex="1">
          <mxGeometry x="354" y="110" width="124" height="50" as="geometry" />
        </mxCell>
        <mxCell id="m72iXQQqprIy3v08GnkQ-7" style="edgeStyle=orthogonalEdgeStyle;rounded=0;orthogonalLoop=1;jettySize=auto;html=1;exitX=0.5;exitY=1;exitDx=0;exitDy=0;fontSize=12;" parent="1" source="m72iXQQqprIy3v08GnkQ-4" target="m72iXQQqprIy3v08GnkQ-6" edge="1">
          <mxGeometry relative="1" as="geometry" />
        </mxCell>
        <mxCell id="m72iXQQqprIy3v08GnkQ-13" style="edgeStyle=orthogonalEdgeStyle;rounded=0;orthogonalLoop=1;jettySize=auto;html=1;exitX=1;exitY=0.5;exitDx=0;exitDy=0;fontSize=12;" parent="1" source="m72iXQQqprIy3v08GnkQ-4" target="m72iXQQqprIy3v08GnkQ-11" edge="1">
          <mxGeometry relative="1" as="geometry" />
        </mxCell>
        <mxCell id="m72iXQQqprIy3v08GnkQ-4" value="if S&lt;sub&gt;0&lt;/sub&gt;&amp;gt;demand&lt;sub&gt;&lt;br&gt;&lt;/sub&gt;" style="rhombus;whiteSpace=wrap;html=1;fontSize=13;align=center;" parent="1" vertex="1">
          <mxGeometry x="355" y="190" width="122" height="80" as="geometry" />
        </mxCell>
        <mxCell id="m72iXQQqprIy3v08GnkQ-9" style="edgeStyle=orthogonalEdgeStyle;rounded=0;orthogonalLoop=1;jettySize=auto;html=1;exitX=0.5;exitY=1;exitDx=0;exitDy=0;entryX=0.5;entryY=0;entryDx=0;entryDy=0;fontSize=12;" parent="1" source="m72iXQQqprIy3v08GnkQ-6" target="m72iXQQqprIy3v08GnkQ-8" edge="1">
          <mxGeometry relative="1" as="geometry" />
        </mxCell>
        <mxCell id="m72iXQQqprIy3v08GnkQ-6" value="&lt;font size=&quot;1&quot;&gt;The 50 most important suppliers shall be ordered according to their importance scores&lt;/font&gt;" style="rounded=0;whiteSpace=wrap;html=1;" parent="1" vertex="1">
          <mxGeometry x="348.5" y="300" width="135" height="90" as="geometry" />
        </mxCell>
        <mxCell id="m72iXQQqprIy3v08GnkQ-12" style="edgeStyle=orthogonalEdgeStyle;rounded=0;orthogonalLoop=1;jettySize=auto;html=1;exitX=0;exitY=0.5;exitDx=0;exitDy=0;entryX=0;entryY=0.5;entryDx=0;entryDy=0;fontSize=12;" parent="1" source="m72iXQQqprIy3v08GnkQ-8" target="m72iXQQqprIy3v08GnkQ-4" edge="1">
          <mxGeometry relative="1" as="geometry" />
        </mxCell>
        <mxCell id="m72iXQQqprIy3v08GnkQ-8" value="S&lt;sub&gt;0&lt;/sub&gt;=S&lt;sub&gt;0&lt;/sub&gt;+supply quantity&lt;sub&gt;&lt;br&gt;&lt;/sub&gt;" style="rhombus;whiteSpace=wrap;html=1;fontSize=13;align=center;" parent="1" vertex="1">
          <mxGeometry x="333.5" y="430" width="165" height="80" as="geometry" />
        </mxCell>
        <mxCell id="m72iXQQqprIy3v08GnkQ-15" style="edgeStyle=orthogonalEdgeStyle;rounded=0;orthogonalLoop=1;jettySize=auto;html=1;exitX=0.5;exitY=1;exitDx=0;exitDy=0;entryX=1;entryY=0.5;entryDx=0;entryDy=0;fontSize=12;" parent="1" source="m72iXQQqprIy3v08GnkQ-11" target="m72iXQQqprIy3v08GnkQ-14" edge="1">
          <mxGeometry relative="1" as="geometry" />
        </mxCell>
        <mxCell id="m72iXQQqprIy3v08GnkQ-11" value="&lt;font size=&quot;1&quot;&gt;No further orders this week&lt;/font&gt;" style="rounded=0;whiteSpace=wrap;html=1;" parent="1" vertex="1">
          <mxGeometry x="530" y="320" width="100" height="50" as="geometry" />
        </mxCell>
        <mxCell id="22OSnKQ9si5k6jn-RW2X-1" style="edgeStyle=orthogonalEdgeStyle;rounded=0;orthogonalLoop=1;jettySize=auto;html=1;exitX=0.5;exitY=1;exitDx=0;exitDy=0;fontSize=12;" edge="1" parent="1" source="m72iXQQqprIy3v08GnkQ-14" target="m72iXQQqprIy3v08GnkQ-16">
          <mxGeometry relative="1" as="geometry" />
        </mxCell>
        <mxCell id="m72iXQQqprIy3v08GnkQ-14" value="&lt;font size=&quot;1&quot;&gt;Get the order plan of this week&lt;/font&gt;" style="rounded=0;whiteSpace=wrap;html=1;" parent="1" vertex="1">
          <mxGeometry x="366" y="550" width="100" height="50" as="geometry" />
        </mxCell>
        <mxCell id="m72iXQQqprIy3v08GnkQ-16" value="End" style="rounded=1;whiteSpace=wrap;html=1;" parent="1" vertex="1">
          <mxGeometry x="376" y="640" width="80" height="50" as="geometry" />
        </mxCell>
      </root>
    </mxGraphModel>
  </diagram>
</mxfile>
